<svg width="337" height="269" viewBox="0 0 337 269" fill="none" xmlns="http://www.w3.org/2000/svg">
<path d="M192.5 264C271.753 264 336 261.538 336 258.5C336 255.462 271.753 253 192.5 253C113.247 253 49 255.462 49 258.5C49 261.538 113.247 264 192.5 264Z" fill="#EAF5FE"/>
<path opacity="0.18" d="M20.313 205.993C20.633 208.63 21.195 211.23 21.993 213.763C26.313 227.516 39.298 241.534 49.85 246.875C60.402 252.215 75.148 253.769 87.853 253.769C94.327 253.706 102.589 258.25 108.866 256.664C109.709 256.465 110.549 256.255 111.386 256.032C113.561 255.455 115.725 254.832 117.874 254.164L120.554 253.322L121.916 252.868C123.781 252.239 125.638 251.588 127.487 250.915L130.361 249.855C139.655 246.378 148.605 241.53 157.739 237.565C166.142 233.913 174.755 231.009 183.898 230.638C206.931 229.704 227.46 245.031 250.182 248.962C277.468 253.676 306.484 240.335 322.391 217.617C323.18 216.496 323.934 215.351 324.651 214.183C324.87 213.838 325.081 213.485 325.291 213.139C325.851 212.212 326.389 211.272 326.904 210.319C327.139 209.891 327.366 209.479 327.593 209.015C327.82 208.552 328.08 208.065 328.315 207.585L328.375 207.466C328.618 206.986 328.845 206.506 329.072 206.019C331.174 201.484 332.861 196.768 334.113 191.929C338.709 174.148 337.801 155.39 331.509 138.136C330.948 136.592 330.335 135.068 329.669 133.566C326.425 126.108 321.996 119.13 315.887 113.819C303.551 103.079 286.317 100.504 271.493 93.619C264.346 90.2138 257.628 85.9757 251.476 80.993C229.88 63.848 212.822 39.75 188.495 26.342C178.077 20.678 166.586 17.2656 154.765 16.326C134.925 14.6857 115.067 19.2756 97.959 29.456C86.875 36.046 76.489 43.748 67.505 64.336C62.539 75.716 58.01 91.026 54.01 112.313C53.5405 114.778 52.943 117.216 52.22 119.619C46.9 137.379 35.187 154.254 27.43 171.669C23.49 180.524 20.582 189.521 20.061 198.839C19.9282 201.226 20.0125 203.621 20.313 205.993Z" fill="#0075FF"/>
<path d="M61.547 204.153C61.544 204.118 61.323 200.64 62.163 195.027C62.937 189.854 64.797 181.747 69.263 172.496C73.723 163.254 78.627 156.18 81.955 151.872C85.565 147.2 88.159 144.678 88.185 144.653L88.582 145.059C88.556 145.084 85.985 147.585 82.398 152.229C79.088 156.513 74.212 163.549 69.776 172.741C65.346 181.919 63.499 189.961 62.73 195.09C61.896 200.649 62.113 204.08 62.115 204.115L61.547 204.153Z" fill="#0A4343"/>
<path d="M61.342 154.179C61.342 154.179 85.444 142.43 87.368 118.507C89.292 94.584 72.892 100.439 65.705 114.094C58.518 127.749 57.638 141.249 61.342 154.179Z" fill="#237978"/>
<path d="M56.96 161.097C56.96 161.097 31 140.187 34.539 113.04C38.077 85.892 56.263 97.749 61.525 115.237C66.788 132.725 64.545 147.977 56.96 161.097Z" fill="#4E5FF8" fill-opacity="0.533333"/>
<path d="M54.52 163.179C54.52 163.179 21.79 156.559 12.326 130.854C2.863 105.149 24.497 107.31 37.282 120.404C50.068 133.498 55.158 148.057 54.52 163.179Z" fill="#237978"/>
<path d="M58.486 207.63C58.473 207.483 57.183 192.804 58.575 174.368C59.392 163.537 60.962 153.545 63.239 144.671C66.089 133.567 70.062 124.188 75.049 116.795L75.521 117.11C70.571 124.449 66.625 133.767 63.792 144.806C61.522 153.647 59.959 163.604 59.143 174.401C57.754 192.791 59.04 207.433 59.053 207.579L58.486 207.629V207.63ZM47.093 225.829L46.553 225.649C46.605 225.494 51.786 209.883 54.268 187.873C55.725 174.949 55.98 162.381 55.027 150.517C53.836 135.693 50.743 121.934 45.834 109.621L46.364 109.411C51.294 121.78 54.4 135.597 55.595 150.481C56.551 162.382 56.295 174.989 54.832 187.95C52.342 210.016 47.146 225.673 47.093 225.829Z" fill="#0A4343"/>
<path d="M52.933 253.992H62.044C71.087 253.992 78.417 246.699 78.417 237.703V202.08H36.56V237.703C36.56 246.699 43.89 253.992 52.933 253.992Z" fill="#204EB2"/>
<path d="M55.496 170.086C55.219 165.508 53.399 160.242 50.086 154.436C47.392 149.709 43.699 144.603 39.111 139.258C31.879 130.832 24.331 124.053 21.421 121.529C21.3489 121.467 21.2772 121.404 21.206 121.341L21.589 120.921C21.617 120.947 21.687 121.008 21.796 121.102C24.716 123.634 32.288 130.436 39.544 138.89C44.155 144.262 47.869 149.398 50.582 154.156C53.937 160.039 55.782 165.386 56.064 170.052L55.496 170.086Z" fill="#0A4343"/>
<path d="M122 175H12C5.37258 175 0 180.373 0 187V242C0 248.627 5.37258 254 12 254H122C128.627 254 134 248.627 134 242V187C134 180.373 128.627 175 122 175Z" fill="#00BC91"/>
<path d="M122 216H12C5.37258 216 0 221.373 0 228V242C0 248.627 5.37258 254 12 254H122C128.627 254 134 248.627 134 242V228C134 221.373 128.627 216 122 216Z" fill="#00234E"/>
<path d="M35 203H12C9.79086 203 8 204.791 8 207V221C8 223.209 9.79086 225 12 225H35C37.2091 225 39 223.209 39 221V207C39 204.791 37.2091 203 35 203Z" fill="#4E5FF8"/>
<path d="M26.534 238H12.5C11.1193 238 10 239.119 10 240.5C10 241.881 11.1193 243 12.5 243H26.534C27.9147 243 29.034 241.881 29.034 240.5C29.034 239.119 27.9147 238 26.534 238Z" fill="#4E5FF8"/>
<path d="M58.258 238H44.224C42.8433 238 41.724 239.119 41.724 240.5C41.724 241.881 42.8433 243 44.224 243H58.258C59.6387 243 60.758 241.881 60.758 240.5C60.758 239.119 59.6387 238 58.258 238Z" fill="#4E5FF8"/>
<path d="M90.775 238H76.741C75.3603 238 74.241 239.119 74.241 240.5C74.241 241.881 75.3603 243 76.741 243H90.775C92.1557 243 93.275 241.881 93.275 240.5C93.275 239.119 92.1557 238 90.775 238Z" fill="#4E5FF8"/>
<path d="M122.5 238H108.466C107.085 238 105.966 239.119 105.966 240.5C105.966 241.881 107.085 243 108.466 243H122.5C123.881 243 125 241.881 125 240.5C125 239.119 123.881 238 122.5 238Z" fill="#4E5FF8"/>
<path d="M259.035 0H126.423C123.428 0 121 2.42796 121 5.423V248.021C121 251.016 123.428 253.444 126.423 253.444H259.035C262.03 253.444 264.458 251.016 264.458 248.021V5.423C264.458 2.42796 262.03 0 259.035 0Z" fill="#00BC91"/>
<path d="M255.486 5.711H129.524C127.984 5.711 126.735 6.95968 126.735 8.5V216.029C126.735 217.569 127.984 218.818 129.524 218.818H255.486C257.026 218.818 258.275 217.569 258.275 216.029V8.5C258.275 6.95968 257.026 5.711 255.486 5.711Z" fill="#6BC8FE"/>
<path d="M192.729 245.145C197.702 245.145 201.734 241.09 201.734 236.087C201.734 231.084 197.702 227.029 192.729 227.029C187.756 227.029 183.724 231.084 183.724 236.087C183.724 241.09 187.756 245.145 192.729 245.145Z" fill="#FCEBEC"/>
<path d="M249.046 15.904L238.203 14.368L239.239 21.239L249.046 20.705V15.904Z" fill="#00BC91"/>
<path d="M237.627 14.168L238.683 14.011L239.779 21.345L238.999 23.207H249.584V24.273H237.398L238.68 21.208L237.627 14.168Z" fill="#00BC91"/>
<path d="M236.508 12.672C237.774 12.672 238.577 13.204 238.734 14.211C238.744 14.2805 238.739 14.3512 238.721 14.4191C238.703 14.4869 238.672 14.5505 238.629 14.606C238.586 14.6616 238.533 14.7081 238.472 14.7428C238.411 14.7775 238.344 14.7996 238.274 14.808C238.137 14.8291 237.997 14.7969 237.882 14.7178C237.768 14.6387 237.689 14.5189 237.66 14.383L237.657 14.368C237.587 13.922 237.265 13.721 236.507 13.721C236.437 13.7223 236.367 13.7098 236.301 13.6841C236.236 13.6585 236.176 13.6202 236.126 13.5714C236.075 13.5226 236.035 13.4644 236.007 13.4C235.978 13.3356 235.963 13.2663 235.962 13.196C235.965 13.0543 236.024 12.9195 236.126 12.8212C236.228 12.723 236.366 12.6693 236.508 12.672Z" fill="#00BC91"/>
<path d="M248.374 25.675C247.822 25.675 247.374 25.2273 247.374 24.675C247.374 24.1227 247.822 23.675 248.374 23.675C248.926 23.675 249.374 24.1227 249.374 24.675C249.374 25.2273 248.926 25.675 248.374 25.675Z" fill="#00BC91"/>
<path d="M239.234 25.675C238.682 25.675 238.234 25.2273 238.234 24.675C238.234 24.1227 238.682 23.675 239.234 23.675C239.786 23.675 240.234 24.1227 240.234 24.675C240.234 25.2273 239.786 25.675 239.234 25.675Z" fill="#00BC91"/>
<path d="M241.442 44.799H144.105C142.479 44.799 141.161 46.1171 141.161 47.743V104.77C141.161 106.396 142.479 107.714 144.105 107.714H241.442C243.068 107.714 244.386 106.396 244.386 104.77V47.743C244.386 46.1171 243.068 44.799 241.442 44.799Z" fill="white"/>
<path d="M226.898 21.308L228.117 20.632L230.707 24.742L229.01 25.683L226.898 21.308Z" fill="#00BC91"/>
<path d="M225.659 12.895C223.061 12.895 220.954 14.993 220.954 17.58C220.954 20.168 223.061 22.266 225.659 22.266C228.257 22.266 230.363 20.168 230.363 17.58C230.363 14.993 228.257 12.895 225.659 12.895ZM225.659 14.234C226.099 14.2331 226.536 14.3189 226.943 14.4866C227.35 14.6542 227.72 14.9004 228.032 15.2111C228.344 15.5218 228.592 15.8909 228.761 16.2974C228.93 16.7039 229.018 17.1397 229.019 17.58C229.018 18.0204 228.931 18.4563 228.761 18.8629C228.592 19.2695 228.344 19.6387 228.032 19.9495C227.72 20.2603 227.35 20.5066 226.943 20.6744C226.536 20.8421 226.099 20.9279 225.659 20.927C225.219 20.9279 224.782 20.8421 224.375 20.6744C223.968 20.5066 223.598 20.2603 223.286 19.9495C222.974 19.6387 222.726 19.2695 222.557 18.8629C222.387 18.4563 222.3 18.0204 222.299 17.58C222.3 17.1397 222.388 16.7039 222.557 16.2974C222.726 15.8909 222.974 15.5218 223.286 15.2111C223.598 14.9004 223.968 14.6542 224.375 14.4866C224.782 14.3189 225.219 14.2331 225.659 14.234ZM134.53 13.922H147.792V15.707H134.53V13.922ZM134.53 17.58H147.792V19.365H134.53V17.58ZM134.53 21.418H147.792V23.203H134.53V21.418Z" fill="#00BC91"/>
<path d="M235.775 188.165H201.117C196.386 188.165 192.55 192.001 192.55 196.732C192.55 201.463 196.386 205.299 201.117 205.299H235.775C240.506 205.299 244.342 201.463 244.342 196.732C244.342 192.001 240.506 188.165 235.775 188.165Z" fill="#00BC91"/>
<path d="M147.792 127.258L143.894 129.298L144.639 124.976L141.486 121.915L145.843 121.285L147.792 117.352L149.741 121.284L154.098 121.915L150.945 124.976L151.689 129.298L147.792 127.258ZM164.1 127.258L160.203 129.298L160.947 124.976L157.794 121.915L162.151 121.285L164.1 117.352L166.049 121.284L170.406 121.915L167.253 124.976L167.997 129.298L164.1 127.258ZM180.408 127.258L176.511 129.298L177.255 124.976L174.102 121.915L178.459 121.285L180.409 117.352L182.357 121.284L186.714 121.915L183.561 124.976L184.306 129.298L180.408 127.258ZM196.716 127.258L192.819 129.298L193.563 124.976L190.41 121.915L194.767 121.285L196.717 117.352L198.665 121.284L203.022 121.915L199.869 124.976L200.614 129.298L196.716 127.258ZM213.024 127.258L209.127 129.298L209.871 124.976L206.718 121.915L211.076 121.285L213.024 117.352L214.974 121.284L219.331 121.915L216.177 124.976L216.922 129.298L213.024 127.258Z" fill="#00BC91"/>
<path d="M237.259 140.198H148.288C144.352 140.198 141.161 143.389 141.161 147.325V171.355C141.161 175.291 144.352 178.482 148.288 178.482H237.259C241.195 178.482 244.386 175.291 244.386 171.355V147.325C244.386 143.389 241.195 140.198 237.259 140.198Z" fill="white"/>
<path d="M232.745 149.925H152.265C151.923 149.925 151.645 150.203 151.645 150.545V153.142C151.645 153.484 151.923 153.762 152.265 153.762H232.745C233.087 153.762 233.365 153.484 233.365 153.142V150.545C233.365 150.203 233.087 149.925 232.745 149.925Z" fill="#00BC91"/>
<path d="M181.043 157.868H152.265C151.923 157.868 151.645 158.146 151.645 158.488V161.085C151.645 161.427 151.923 161.705 152.265 161.705H181.043C181.385 161.705 181.663 161.427 181.663 161.085V158.488C181.663 158.146 181.385 157.868 181.043 157.868Z" fill="#00BC91"/>
<path d="M186.957 165.899H152.265C151.923 165.899 151.645 166.177 151.645 166.519V169.116C151.645 169.458 151.923 169.736 152.265 169.736H186.957C187.299 169.736 187.577 169.458 187.577 169.116V166.519C187.577 166.177 187.299 165.899 186.957 165.899Z" fill="#00BC91"/>
<path d="M105.207 246.91L104.333 253.5L109.743 254.59L112.148 247.945L105.207 246.91ZM137.396 229.535L141.16 229.511L134.226 239.829L131.056 236.235L137.396 229.535Z" fill="#ECAFA3"/>
<path d="M126.976 239.34C126.619 239.34 125.559 238.145 124.016 236.111L121.895 248.27C108.255 250.325 102.547 246.374 102.547 246.374L106.557 210.258C100.417 200.717 94.867 191.09 92.497 187.634C85.297 177.132 86.837 129.547 86.837 129.547C96.836 129.819 127.225 129.547 127.225 129.547C127.225 129.547 129.578 179.043 129.578 183.419C129.578 187.796 127.138 206.437 127.138 206.437C127.138 206.437 139.336 226.859 138.523 228.805C137.71 230.749 129.09 239.34 126.976 239.34Z" fill="#204EB2"/>
<path d="M109.462 147.491H109.478C109.549 147.496 109.615 147.529 109.662 147.583C109.709 147.637 109.733 147.707 109.728 147.778L109.71 148.058C109.703 148.158 109.697 148.27 109.69 148.392L109.672 148.717C109.649 149.137 109.627 149.602 109.606 150.109C109.379 155.576 109.432 161.521 109.963 167.107C110.577 173.563 111.77 178.709 113.647 182.053L115.861 186.004L118.389 190.525C119.983 193.379 121.649 196.366 123.326 199.375L127.223 206.374C127.24 206.405 127.251 206.439 127.255 206.474C127.259 206.509 127.256 206.544 127.246 206.578C127.237 206.612 127.22 206.644 127.198 206.671C127.176 206.699 127.149 206.722 127.118 206.739C127.058 206.772 126.988 206.781 126.921 206.764C126.855 206.747 126.797 206.706 126.76 206.648L123.052 199.988C121.362 196.957 119.681 193.941 118.07 191.058L115.645 186.72C114.765 185.146 113.939 183.674 113.177 182.315C111.255 178.891 110.047 173.681 109.427 167.158C108.894 161.544 108.84 155.576 109.067 150.087L109.081 149.787C109.102 149.293 109.125 148.844 109.147 148.441L109.172 148.025L109.19 147.741C109.195 147.673 109.226 147.609 109.277 147.562C109.327 147.516 109.393 147.49 109.462 147.491ZM112.563 218.123C112.621 218.087 112.691 218.074 112.758 218.087C112.825 218.101 112.885 218.139 112.925 218.195L112.934 218.208L124.103 236.018C124.122 236.048 124.134 236.081 124.14 236.116C124.146 236.151 124.145 236.186 124.137 236.221C124.129 236.255 124.114 236.288 124.094 236.316C124.073 236.345 124.047 236.369 124.017 236.388C123.959 236.424 123.889 236.437 123.822 236.423C123.755 236.41 123.695 236.372 123.655 236.316L123.645 236.303L112.477 218.493C112.458 218.463 112.446 218.43 112.44 218.395C112.434 218.36 112.435 218.324 112.443 218.29C112.451 218.256 112.466 218.223 112.486 218.195C112.507 218.166 112.533 218.142 112.563 218.123Z" fill="black"/>
<path d="M110.214 253.346C110.214 253.346 110.927 253.204 110.927 253.826C110.927 254.446 110.214 258.316 110.903 261.391C111.593 264.465 115.596 268.455 105.817 268.586C96.038 268.716 98.302 264.923 99.451 263.451C100.599 261.98 103.049 258.484 103.606 256.326C104.164 254.167 103.848 252.365 104.472 252.07C104.472 252.07 107.294 253.28 110.214 253.346Z" fill="#237978"/>
<path d="M98.709 267.138C100.427 268.56 103.339 269.111 108.027 268.56C112.715 268.009 112.802 266.21 112.074 264.497C112.074 264.497 103.862 265.482 99.451 263.451C99.451 263.451 96.991 265.716 98.709 267.138Z" fill="#F9C818"/>
<path d="M133.263 238.776C133.263 238.776 132.701 239.039 133.296 239.831C133.891 240.621 134.551 242.501 135.653 246.465C136.754 250.429 137.06 252.136 137.366 257.259C137.672 262.382 137.182 269.517 141.282 267.382C145.382 265.248 146.912 258.296 146.177 254.088C145.443 249.88 143.852 245.55 145.198 240.245C146.544 234.939 147.523 231.585 144.464 230.548C141.404 229.511 138.559 228.606 138.544 229.698C138.544 229.698 138.688 236.303 133.263 238.776Z" fill="#237978"/>
<path d="M146.244 259.096C146.244 259.096 145.086 268.14 139.583 267.9C139.583 267.9 137.555 268.525 137.459 260.876C137.459 260.876 137.749 264.484 146.244 259.096Z" fill="#F9C818"/>
<mask id="mask0_212_164" style="mask-type:luminance" maskUnits="userSpaceOnUse" x="141" y="229" width="6" height="11">
<path d="M141.807 229.706H146.568V239.319H141.808L141.807 229.706Z" fill="white"/>
</mask>
<g mask="url(#mask0_212_164)">
<path d="M141.952 229.706C141.952 229.706 140.715 236.06 145.469 239.319C145.469 239.319 147.119 234.033 146.376 232.28C145.635 230.527 144.535 230.445 141.952 229.706Z" fill="#F9C818"/>
</g>
<path d="M102.45 71.046C102.45 71.046 102.118 78.306 97.869 80.868C94.014 83.193 102.181 96.684 110.967 95.879C115.777 95.439 116.903 82.331 116.903 82.331C116.903 82.331 113.02 81.583 114.455 75.681L102.45 71.046Z" fill="#ECAFA3"/>
<path d="M109.484 78.427C103.788 77.741 99.678 74.009 99.102 67.817C97.446 68.08 97.056 63.78 97.517 62.398C97.979 61.015 99.485 61.824 99.485 61.824C99.569 61.605 99.64 61.377 99.698 61.137C102.186 50.966 109.155 51.369 109.155 51.369C121.96 52.034 118.96 65.064 118.228 68.52C117.497 71.977 114.99 79.09 109.484 78.427ZM71.15 102.89C61.008 118.903 57.809 128.618 61.552 132.036C65.294 135.454 72.434 131.296 82.971 119.562C82.428 116.942 81.026 114.084 78.765 110.987C76.505 107.89 73.965 105.191 71.15 102.89Z" fill="#ECAFA3"/>
<path d="M135.062 114.267L127.66 113.409C127.66 113.409 129.554 138.802 128.842 138.802C128.46 138.802 119.569 143.606 107.109 143.606C97.536 143.606 85.795 140.451 85.299 140.425C85.238 140.421 85.179 140.38 85.122 140.304C85.282 138.552 85.408 135.456 85.536 132.036C85.626 129.636 85.718 127.079 85.823 124.716C85.921 122.519 86.03 120.49 86.162 118.914C86.736 112.04 86.339 105.767 86.339 105.767L83.504 113.433L65.536 106.908C65.536 106.908 71.536 98.193 78.689 90.613C85.786 83.092 97.169 81.183 97.346 81.155H97.348C97.348 81.155 96.708 91.531 107.477 92.328C116.429 92.99 116.893 82.296 116.893 82.296C116.893 82.296 127.359 85.019 130.361 87.571C133.363 90.123 146.608 107.547 146.608 107.987C146.608 108.427 135.062 114.267 135.062 114.267Z" fill="#4E5FF8"/>
<path d="M85.823 124.717C85.718 127.079 85.626 129.637 85.536 132.036C85.516 130.41 85.58 128.074 85.823 124.717Z" fill="#F9C818"/>
<path d="M123.03 117.254L113.618 118.017C113.346 118.039 113.076 117.953 112.868 117.776C112.659 117.6 112.53 117.348 112.507 117.076L111.002 98.628C110.991 98.4933 111.007 98.3578 111.049 98.2292C111.09 98.1007 111.157 97.9816 111.245 97.8788C111.332 97.776 111.439 97.6915 111.56 97.6301C111.68 97.5687 111.811 97.5316 111.946 97.521L121.359 96.758C121.631 96.7356 121.901 96.8221 122.109 96.9986C122.318 97.175 122.447 97.4269 122.47 97.699L123.975 116.147C123.986 116.282 123.97 116.417 123.928 116.546C123.887 116.674 123.82 116.793 123.733 116.896C123.645 116.999 123.538 117.084 123.417 117.145C123.297 117.206 123.165 117.243 123.03 117.254Z" fill="#204EB2"/>
<path d="M123.99 116.743L114.543 117.508C114.276 117.53 114.01 117.445 113.806 117.271C113.601 117.098 113.473 116.85 113.451 116.583L111.998 98.773C111.987 98.6405 112.003 98.5071 112.044 98.3806C112.085 98.2541 112.15 98.1369 112.237 98.0358C112.323 97.9346 112.428 97.8515 112.547 97.7911C112.665 97.7307 112.794 97.6943 112.927 97.684L122.374 96.919C122.641 96.8971 122.907 96.9822 123.111 97.1557C123.316 97.3291 123.444 97.5766 123.466 97.844L124.919 115.654C124.93 115.787 124.914 115.92 124.873 116.046C124.832 116.173 124.767 116.29 124.68 116.391C124.594 116.492 124.489 116.576 124.37 116.636C124.252 116.696 124.123 116.733 123.99 116.743Z" fill="#025B9C"/>
<path d="M122.401 98.95C122.411 99.0771 122.396 99.205 122.357 99.3263C122.317 99.4476 122.255 99.56 122.172 99.6571C122.089 99.7541 121.988 99.8339 121.875 99.8919C121.761 99.9499 121.637 99.9849 121.51 99.995C121.38 100.011 121.248 100 121.123 99.964C120.997 99.9278 120.88 99.8665 120.779 99.7838C120.677 99.7012 120.594 99.5989 120.533 99.4832C120.472 99.3674 120.435 99.2406 120.424 99.1102C120.414 98.9799 120.43 98.8487 120.471 98.7246C120.512 98.6005 120.578 98.486 120.665 98.3881C120.751 98.2901 120.857 98.2106 120.975 98.1544C121.093 98.0982 121.221 98.0664 121.352 98.061C121.609 98.0397 121.864 98.1214 122.061 98.2881C122.258 98.4548 122.38 98.6929 122.401 98.95Z" fill="white"/>
<path d="M120.538 116.092C120.538 116.092 115.817 117.118 115.787 115.489C115.787 115.489 118.994 114.162 119.721 114.222C120.447 114.282 123.806 114.675 123.806 114.675L119.66 112.624L115.544 113.891C115.544 113.891 114.606 113.951 114.183 113.287C113.759 112.624 114.243 112.232 114.243 112.232L119.63 110.452C119.63 110.452 119.811 109.879 118.45 109.819C117.088 109.759 114.092 109.548 114.092 109.548C114.092 109.548 113.426 108.975 113.729 107.949C114.031 106.924 115.726 107.286 115.726 107.286C115.726 107.286 114.788 106.381 116.21 105.386C116.21 105.386 120.568 105.506 122.172 106.501C126.363 109.077 130.557 111.648 134.754 114.215L143.299 109.742C154.114 122.936 156.983 130.752 151.907 133.192C146.831 135.632 136.375 129.932 120.538 116.092Z" fill="#ECAFA3"/>
<path d="M125.278 110.16L120.988 107.738L115.645 107.167L115.683 106.811L121.063 107.386C121.087 107.388 121.111 107.396 121.132 107.408L125.455 109.849L125.278 110.16ZM142.5 119.105L132.245 112.683L132.435 112.38L142.691 118.802L142.5 119.105ZM78.201 111.76L67.914 118.131L67.724 117.827L78.012 111.457L78.201 111.76ZM124.93 112.125C124.903 112.107 122.215 110.293 121.514 110.002C120.979 109.78 119.91 110.185 119.543 110.36L119.388 110.037C119.448 110.009 120.861 109.343 121.652 109.672C122.386 109.977 125.02 111.754 125.132 111.829L124.93 112.125Z" fill="#C86A5D"/>
<path d="M124.006 105.049L126.656 109.087L124.136 107.507L124.006 105.049Z" fill="#ECAFA3"/>
<path d="M126.56 109.238L124.04 107.659L124.232 107.356L126.751 108.936L126.56 109.238Z" fill="#C86A5D"/>
<path d="M91.387 119.083L88.232 119.021C84.911 118.956 82.272 116.221 82.336 112.91L82.534 102.89L96.878 103.171L96.665 114.025C96.609 116.875 94.245 119.139 91.387 119.083Z" fill="white"/>
<path d="M82.22 106.354C82.22 106.354 80.925 107.183 80.509 107.69C80.093 108.197 80.463 108.289 79.538 109.256C78.613 110.224 76.948 112.666 79.861 116.398C82.774 120.131 83.745 119.808 84.947 119.163C86.149 118.518 86.287 118.057 88.553 117.827C90.819 117.597 92.992 115.385 92.945 114.832L92.899 114.279C92.899 114.279 94.979 113.496 94.841 112.62C94.702 111.745 94.101 111.837 94.101 111.837C94.101 111.837 94.517 111.422 94.194 110.685C93.87 109.948 92.344 110.085 90.587 110.316C88.831 110.546 84.3 111.468 84.022 111.284C83.745 111.1 83.838 110.824 84.901 110.684C85.964 110.547 90.264 110.501 90.264 109.303C90.264 108.105 88.969 107.874 86.473 107.92C83.976 107.966 83.513 107.828 82.913 108.059L82.312 108.289L82.22 106.354Z" fill="#ECAFA3"/>
<path d="M94.138 111.832C94.138 111.832 94.27 111.736 93.281 112.112C92.921 112.25 92.413 112.392 91.697 112.528C89.016 113.035 84.808 113.956 83.514 114.141C82.219 114.325 83.283 114.601 86.242 114.002C89.201 113.403 92.722 112.6 92.881 112.547C93.151 112.457 93.958 112.189 94.138 111.832ZM91.928 114.555C91.928 114.555 89.74 115.32 88.663 115.589C87.519 115.873 86.658 116.26 86.427 115.892C86.195 115.522 85.918 115.431 85.918 115.431L85.548 115.845C85.548 115.845 85.611 116.305 85.409 116.352C85.049 116.438 84.346 116.582 84.346 116.582C84.346 116.582 84.354 116.841 86.509 116.394C87.043 116.283 88.034 116.125 88.663 115.946C89.241 115.782 91.327 115.246 91.605 115.016C91.882 114.786 91.928 114.555 91.928 114.555Z" fill="#995B5D"/>
<path d="M85.132 114.325C85.132 114.325 85.098 116.18 85.624 116.151C86.149 116.122 86.334 116.122 86.427 115.984C86.519 115.845 86.287 115.384 86.287 114.878C86.287 114.371 86.287 114.141 85.872 114.187C85.456 114.233 85.178 114.233 85.132 114.325Z" fill="#F9C818"/>
<path d="M113.308 63.49L113.65 63.598L113.616 63.705L113.527 64.002C113.435 64.318 113.343 64.657 113.257 65.006C113.161 65.395 113.079 65.771 113.014 66.126L112.996 66.232C112.84 67.135 112.818 67.825 112.957 68.197L112.965 68.217C113.762 70.182 112.68 71.178 110.409 70.481L110.339 70.459L110.449 70.119C112.495 70.771 113.316 70.036 112.633 68.352C112.445 67.888 112.473 67.102 112.661 66.062C112.727 65.7 112.811 65.316 112.908 64.921C112.985 64.606 113.068 64.299 113.151 64.01L113.182 63.902L113.236 63.721L113.28 63.577L113.308 63.489V63.49Z" fill="black"/>
<path d="M104.444 77.177L104.62 76.865L104.684 76.899L104.743 76.931C104.832 76.977 104.933 77.029 105.046 77.084L105.095 77.108C105.474 77.292 105.893 77.476 106.34 77.648C107.367 78.042 108.382 78.312 109.327 78.399C109.755 78.439 110.161 78.44 110.54 78.399L110.616 78.391L110.66 78.746C110.206 78.7981 109.748 78.8014 109.294 78.756C108.312 78.665 107.266 78.387 106.21 77.981C105.778 77.8154 105.354 77.6315 104.938 77.43L104.791 77.357C104.729 77.327 104.671 77.297 104.616 77.268L104.514 77.215L104.444 77.177Z" fill="#C86A5D"/>
<path d="M110.685 73.553C109.049 73.116 108.016 72.04 107.968 71.988C107.944 71.9624 107.925 71.9323 107.912 71.8994C107.9 71.8665 107.894 71.8314 107.895 71.7962C107.896 71.761 107.904 71.7264 107.918 71.6942C107.933 71.6621 107.953 71.6332 107.979 71.609C108.031 71.5604 108.1 71.5342 108.171 71.5363C108.242 71.5383 108.31 71.5684 108.359 71.62C108.38 71.642 109.596 72.896 111.399 73.152C111.47 73.1619 111.533 73.1994 111.576 73.2561C111.619 73.3129 111.638 73.3844 111.629 73.455C111.619 73.5256 111.581 73.5892 111.524 73.6319C111.466 73.6746 111.395 73.693 111.324 73.683C111.108 73.6526 110.895 73.6092 110.685 73.553ZM111.682 70.703C111.319 70.703 110.866 70.633 110.302 70.453L110.411 70.112C111.463 70.447 112.241 70.42 112.599 70.034C112.905 69.706 112.903 69.106 112.594 68.345C112.384 67.828 112.436 66.849 112.748 65.433C112.976 64.397 113.266 63.491 113.269 63.483L113.611 63.592C113.296 64.57 112.56 67.306 112.927 68.211C113.393 69.361 113.149 69.97 112.862 70.278C112.658 70.498 112.301 70.703 111.682 70.703ZM110.184 63.299C110.129 63.2988 110.074 63.2893 110.022 63.271C109.498 63.089 107.985 62.605 107.284 62.553C106.624 62.504 105.616 62.829 105.284 62.959C105.224 62.9826 105.16 62.9942 105.095 62.993C105.03 62.9918 104.967 62.9779 104.907 62.9521C104.848 62.9263 104.795 62.8891 104.75 62.8426C104.705 62.796 104.67 62.7411 104.646 62.681C104.622 62.6209 104.611 62.5566 104.612 62.492C104.613 62.4274 104.627 62.3637 104.653 62.3044C104.679 62.2452 104.716 62.1916 104.762 62.1467C104.809 62.1019 104.864 62.0666 104.924 62.043C104.981 62.02 106.336 61.496 107.357 61.572C108.331 61.644 110.265 62.314 110.347 62.342C110.457 62.3801 110.55 62.456 110.61 62.5563C110.669 62.6566 110.691 62.7747 110.671 62.8896C110.652 63.0045 110.592 63.1087 110.503 63.1837C110.413 63.2587 110.301 63.2995 110.184 63.299Z" fill="black"/>
<path d="M118.49 64.978C118.387 64.9782 118.288 64.9456 118.205 64.885C117.931 64.685 117.083 64.142 116.467 64.04C115.809 63.93 114.297 64.054 113.77 64.11C113.707 64.1168 113.644 64.1112 113.583 64.0935C113.523 64.0759 113.466 64.0464 113.417 64.0069C113.368 63.9674 113.327 63.9186 113.297 63.8633C113.266 63.8079 113.247 63.7472 113.24 63.6845C113.234 63.6218 113.239 63.5583 113.257 63.4978C113.275 63.4373 113.304 63.3808 113.344 63.3316C113.383 63.2824 113.432 63.2415 113.487 63.2112C113.543 63.1809 113.603 63.1618 113.666 63.155C113.749 63.147 115.703 62.939 116.626 63.092C117.596 63.254 118.728 64.076 118.776 64.111C118.858 64.1709 118.918 64.2552 118.949 64.3518C118.98 64.4483 118.98 64.5521 118.948 64.6484C118.916 64.7446 118.855 64.8283 118.772 64.8876C118.69 64.9468 118.591 64.9784 118.49 64.978ZM109.242 65.87C109.175 65.8701 109.11 65.8447 109.06 65.799C108.752 65.5504 108.367 65.4186 107.971 65.427C107.308 65.451 106.868 65.775 106.864 65.777C106.807 65.8199 106.735 65.8384 106.665 65.8287C106.594 65.819 106.53 65.7817 106.487 65.725C106.444 65.6687 106.425 65.5978 106.435 65.5276C106.444 65.4575 106.481 65.394 106.537 65.351C106.561 65.333 107.11 64.921 107.952 64.891C108.489 64.8775 109.012 65.0599 109.424 65.404C109.464 65.4405 109.492 65.4883 109.504 65.541C109.517 65.5938 109.513 65.649 109.493 65.6995C109.473 65.75 109.439 65.7933 109.394 65.8237C109.349 65.8541 109.296 65.8703 109.242 65.87ZM116.792 66.688C116.725 66.6881 116.66 66.6627 116.61 66.617C116.302 66.3681 115.917 66.2363 115.521 66.245C115.127 66.2579 114.745 66.379 114.415 66.595C114.358 66.6384 114.287 66.6575 114.216 66.6481C114.145 66.6387 114.081 66.6017 114.037 66.545C114.016 66.517 114 66.4851 113.991 66.4511C113.982 66.417 113.979 66.3815 113.984 66.3466C113.989 66.3117 114 66.278 114.018 66.2476C114.035 66.2171 114.059 66.1904 114.087 66.169C114.11 66.151 114.66 65.739 115.501 65.709C116.038 65.6954 116.562 65.8777 116.974 66.222C117.014 66.2585 117.042 66.3063 117.054 66.359C117.067 66.4118 117.063 66.467 117.043 66.5175C117.023 66.568 116.989 66.6113 116.944 66.6417C116.899 66.6721 116.846 66.6883 116.792 66.688Z" fill="black"/>
<path d="M119.782 65.415C119.782 63.738 119.407 61.616 120.417 60.778C121.426 59.94 123.612 58.516 122.35 56.756C121.09 54.996 122.519 51.56 120.332 51.141C118.146 50.722 118.054 50.033 117.465 48.441C116.877 46.848 114.377 48.107 113.35 47.303C112.382 46.545 111.225 45.238 108.544 46.579C107.1 47.302 104.636 44.494 102.843 48.459C101.693 51.002 100.475 48.775 98.81 50.097C96.831 51.667 98.757 53.962 96.991 55.136C95.225 56.309 96.763 57.654 96.128 58.976C95.08 61.158 96.873 68.823 98.05 69.494C99.227 70.164 99.836 71.293 99.836 71.293C99.836 71.293 99.293 69.455 99.159 67.779C99.159 67.779 98.249 68.005 97.753 66.385C97.256 64.765 97.08 62.005 98.154 61.695C99.229 61.383 99.429 62.255 99.429 62.255C99.429 62.255 99.782 63.588 99.578 64.606C99.374 65.624 100.038 66.235 100.395 64.708C100.752 63.181 102.54 63.13 102.182 61.044C101.825 58.957 102.54 57.736 103.969 57.125C105.399 56.515 105.808 53.41 107.033 53.715C108.259 54.021 109.637 52.698 111.526 53.614C113.416 54.53 113.263 55.802 114.896 56.108C116.531 56.413 117.399 57.431 117.399 58.296C117.399 59.161 118.522 59.466 118.829 60.688C119.135 61.909 118.866 65.53 118.225 68.571C118.225 68.571 119.782 67.091 119.782 65.415Z" fill="#66231C"/>
<path d="M109.482 74.87C109.652 74.58 109.877 74.452 110.157 74.487C110.575 74.539 111.023 75.692 111.724 76.331C112.191 76.757 112.797 77.117 113.54 77.411C112.615 79.597 111.32 80.692 109.654 80.696C107.712 80.699 106.015 80.071 104.69 77.45C103.612 75.316 105.457 77.033 107.88 76.088C108.434 75.872 108.878 75.429 109.482 74.87Z" fill="black"/>
</svg>
